# AST/ASF file generated using VICON BodyLanguage
# -----------------------------------------------
:version 1.10
:name VICON
:units
  mass 1.0
  length 0.45
  angle deg
:documentation
   .ast/.asf automatically generated from VICON data using
   VICON BodyBuilder and BodyLanguage model FoxedUp or BRILLIANT.MOD
:root
   order TX TY TZ RX RY RZ
   axis XYZ
   position 0 0 0  
   orientation 0 0 0 
:bonedata
  begin
     id 1 
     name lhipjoint
     direction 0.558404 -0.748506 0.357664 
     length 2.4234 
     axis 0 0 0  XYZ
  end
  begin
     id 2 
     name lfemur
     direction 0.34202 -0.939693 0  
     length 7.14567  
     axis 0 0 20  XYZ
    dof rx ry rz
    limits (-160.0 20.0)
           (-70.0 70.0)
           (-60.0 70.0)
  end
  begin
     id 3 
     name ltibia
     direction 0.34202 -0.939693 0   
     length 8.13956   
     axis 0 0 20   XYZ
    dof rx
    limits (-10.0 170.0)
  end
  begin
     id 4 
     name lfoot
     direction 0.0791314 -0.217412 0.972867   
     length 2.00134   
     axis -90 7.62852e-016 20   XYZ
    dof rx rz
    limits (-45.0 90.0)
           (-70.0 20.0)
  end
  begin
     id 5 
     name ltoes
     direction 1.53547e-011 -4.21922e-011 1   
     length 1.00735   
     axis -90 7.62852e-016 20   XYZ
    dof rx
    limits (-90.0 20.0)
  end
  begin
     id 6 
     name rhipjoint
     direction -0.496392 -0.78327 0.374276   
     length 2.31584  
     axis 0 0 0  XYZ 
  end
  begin
     id 7 
     name rfemur
     direction -0.34202 -0.939693 0   
     length 7.47417   
     axis 0 0 -20   XYZ
    dof rx ry rz
    limits (-160.0 20.0)
           (-70.0 70.0)
           (-70.0 60.0)
  end
  begin
     id 8 
     name rtibia
     direction -0.34202 -0.939693 0   
     length 7.69071   
     axis 0 0 -20   XYZ
    dof rx
    limits (-10.0 170.0)
 end
 begin
     id 9 
     name rfoot
     direction -0.103069 -0.28318 0.953512   
     length 2.16135  
     axis -90 -7.62852e-016 -20   XYZ
    dof rx rz
    limits (-45.0 90.0)
           (-20.0 70.0)
  end
  begin
     id 10 
     name rtoes
     direction -1.53581e-011 -4.21904e-011 1   
     length 1.07867   
     axis -90 -7.62852e-016 -20   XYZ
    dof rx
    limits (-90.0 20.0)
  end
  begin
     id 11 
     name lowerback
     direction -0.0258961 0.994776 -0.0987407   
     length 2.19412   
     axis 0 0 0   XYZ
    dof rx ry rz
    limits (-20.0 45.0)
           (-30.0 30.0)
           (-30.0 30.0)
  end
  begin
     id 12 
     name upperback
     direction 0.0402454 0.999185 0.00320666   
     length 2.18445   
     axis 0 0 0   XYZ
    dof rx ry rz
    limits (-20.0 45.0)
           (-30.0 30.0)
           (-30.0 30.0)
  end
  begin
     id 13 
     name thorax
     direction 0.0519376 0.997415 0.0496558   
     length 2.21487   
     axis 0 0 0   XYZ
    dof rx ry rz
    limits (-20.0 45.0)
           (-30.0 30.0)
           (-30.0 30.0)
  end
  begin
     id 14 
     name lowerneck
     direction -0.0921276 0.983211 0.157506   
     length 1.61201   
     axis 0 0 0   XYZ
    dof rx ry rz
    limits (-20.0 45.0)
           (-30.0 30.0)
           (-30.0 30.0)
  end
  begin
     id 15 
     name upperneck
     direction 0.0820814 0.98162 -0.172292   
     length 1.65275   
     axis 0 0 0   XYZ
    dof rx ry rz
    limits (-20.0 45.0)
           (-30.0 30.0)
           (-30.0 30.0)
  end
  begin
     id 16
     name head
     direction 0.0336554 0.996413 -0.0776455  
     length 1.66415  
     axis 0 0 0   XYZ
    dof rx ry rz
    limits (-20.0 45.0)
           (-30.0 30.0)
           (-30.0 30.0)
  end
  begin
     id 17 
     name lclavicle
     direction 0.94696 0.284418 -0.149576  
     length 3.41447  
     axis 0 0 0   XYZ
    dof ry rz
    limits (-20.0 10.0)
           (0.0 20.0)
  end
  begin
     id 18 
     name lhumerus
     direction 1 -0.000130264 -9.81312e-005   
     length 5.19964   
     axis 180 -30 -90   XYZ
    dof rx ry rz
    limits (-60.0 90.0)
           (-90.0 90.0)
           (-90.0 90.0)
  end
  begin
     id 19
     name lradius
     direction 1 -4.48961e-011 1.43854e-026   
     length 3.32189   
     axis 180 -30 -90   XYZ
    dof rx
    limits (-10.0 170.0)
  end
  begin
     id 20
     name lwrist
     direction 1 -4.48958e-011 3.1502e-026   
     length 1.66095   
     axis -1.97692e-014 90 90   XYZ
    dof ry
    limits (-180.0 0.0)
 end
  begin
     id 21 
     name lhand
     direction 1 -4.48927e-011 6.3004e-026   
     length 0.645616   
     axis -4.02019e-014 90 90   XYZ
    dof rx rz
    limits (-90.0 90.0)
           (-45.0 45.0)
  end
  begin
     id 22 
     name lfingers
     direction 1 -4.4904e-011 1.26008e-025   
     length 0.520512   
     axis -8.04039e-014 90 90   XYZ
    dof rx
    limits (0.0 90.0)
  end
  begin
     id 23
     name lthumb
     direction 0.707107 -6.34947e-011 0.707107   
     length 0.747354   
     axis -90 45 2.85299e-015   XYZ
    dof rx rz
    limits (-45.0 45.0)
           (-45.0 45.0)
  end
  begin
     id 24 
     name rclavicle
     direction -0.909391 0.383475 -0.161107   
     length 3.25176  
     axis 0 0 0   XYZ 
    dof ry rz
    limits (-10.0 20.0)
           (-20.0 0.0)
  end
  begin
     id 25 
     name rhumerus
     direction -1 -4.48965e-011 -1.81384e-027  
     length 5.6595   
     axis 180 30 90   XYZ
    dof rx ry rz
    limits (-90.0 60.0)
           (-90.0 90.0)
           (-90.0 90.0)
  end
  begin
     id 26 
     name rradius
     direction -1 -4.48996e-011 -8.09397e-027   
     length 3.37604   
     axis 180 30 90   XYZ
    dof rx
    limits (-10.0 170.0)
  end
  begin
     id 27 
     name rwrist
     direction -1 -4.48927e-011 -1.56669e-026   
     length 1.68802   
     axis 1.21142e-014 -90 -90   XYZ
    dof ry
    limits (-180.0 0.0)
  end
  begin
     id 28
     name rhand
     direction -1 -4.48912e-011 -3.13339e-026   
     length 0.824702   
     axis 1.99937e-014 -90 -90   XYZ
    dof rx rz
    limits (-90.0 90.0)
           (-45.0 45.0)
  end
  begin
     id 29
     name rfingers
     direction -1 -4.49011e-011 -6.26677e-026   
     length 0.664896   
     axis 3.99874e-014 -90 -90   XYZ
    dof rx
    limits (0.0 90.0)
  end
  begin
     id 30
     name rthumb
     direction -0.707107 -6.34931e-011 0.707107   
     length 0.954662   
     axis -90 -45 -2.85299e-015   XYZ
    dof rx rz
    limits (-45.0 45.0)
           (-45.0 45.0)
  end
:hierarchy
  begin
    root lhipjoint rhipjoint lowerback
    lhipjoint lfemur
    lfemur ltibia
    ltibia lfoot
    lfoot ltoes
    rhipjoint rfemur
    rfemur rtibia
    rtibia rfoot
    rfoot rtoes
    lowerback upperback
    upperback thorax
    thorax lowerneck lclavicle rclavicle
    lowerneck upperneck
    upperneck head
    lclavicle lhumerus
    lhumerus lradius
    lradius lwrist
    lwrist lhand lthumb
    lhand lfingers
    rclavicle rhumerus
    rhumerus rradius
    rradius rwrist
    rwrist rhand rthumb
    rhand rfingers
  end

#!OML:ASF F:\VICON\USERDATA\INSTALL\rory3\rory3.ASF
:FULLY-SPECIFIED
:DEGREES
76
root 6.41336 15.6228 -22.8736 27.567 -31.455 -14.8314
lowerback 15.6644 -3.66169 2.27097
upperback 1.08276 -3.96303 7.70301
thorax -7.22373 -1.93187 7.92935
lowerneck -17.497 1.93586 -8.57513
upperneck 18.2456 2.71661 10.2909
head 8.25485 1.7476 5.24425
rclavicle -9.44227e-014 7.95139e-014
rhumerus -31.0157 -2.03113 -67.8721
rradius 59.6662
rwrist -8.14945
rhand -15.5536 20.7088
rfingers 7.12502
rthumb 10.6307 -9.00233
lclavicle -9.44227e-014 7.95139e-014
lhumerus -6.59197 27.4702 54.6536
lradius 25.3803
lwrist -13.5662
lhand -7.96906 25.7197
lfingers 7.12502
lthumb 17.9386 54.9124
rfemur -49.2112 -0.451411 30.3791
rtibia 73.5486
rfoot -33.6781 -10.0787
rtoes -10.7962
lfemur -22.1178 4.66572 -20.2296
ltibia 81.0962
lfoot 11.0503 -0.0111067
ltoes 26.2481
77
root 6.32211 15.6462 -22.585 28.0749 -31.9529 -15.4228
lowerback 15.3902 -3.11181 2.12277
upperback 1.08062 -3.27531 7.76838
thorax -7.14002 -1.59308 7.91851
lowerneck -17.4577 1.67837 -8.67519
upperneck 18.3119 2.37053 10.3437
head 8.3051 1.5811 5.24483
rclavicle -3.598e-014 5.58585e-014
rhumerus -29.845 -1.79923 -67.7273
rradius 60.6566
rwrist -7.80202
rhand -15.6852 20.1016
rfingers 7.12502
rthumb 10.5038 -9.61601
lclavicle -3.598e-014 5.58585e-014
lhumerus -6.94513 28.1096 52.9945
lradius 25.3439
lwrist -13.6167
lhand -6.73523 26.6625
lfingers 7.12502
lthumb 19.1255 55.7422
rfemur -47.6741 0.204168 30.2241
rtibia 72.6868
rfoot -34.0232 -10.4687
rtoes -12.4723
lfemur -25.5347 6.67758 -19.5066
ltibia 84.7111
lfoot 9.21986 -0.850935
ltoes 12.0399
78
root 6.24538 15.6747 -22.2916 28.1814 -31.7217 -15.6879
lowerback 15.6352 -2.86327 2.15343
upperback 0.85614 -2.88868 8.03003
thorax -7.55447 -1.38888 8.15454
lowerneck -17.2903 1.33396 -9.07092
upperneck 18.4237 2.02146 10.169
head 8.34813 1.36639 5.21403
rclavicle 4.6615e-014 -5.20816e-014
rhumerus -28.8984 -1.35754 -67.1666
rradius 61.6287
rwrist -7.33327
rhand -15.5589 20.4817
rfingers 7.12502
rthumb 10.6256 -9.2297
lclavicle 4.6615e-014 -5.20816e-014
lhumerus -7.83858 29.0225 51.3727
lradius 25.2867
lwrist -14.1173
lhand -5.59671 27.5046
lfingers 7.12502
lthumb 20.22 56.4722
rfemur -45.8916 0.0352643 30.093
rtibia 71.6819
rfoot -34.4045 -10.375
rtoes -12.9646
lfemur -28.8548 7.94209 -18.7371
ltibia 88.0779
lfoot 7.45844 -1.74514
ltoes 13.2061
79
root 6.16587 15.7094 -22.0011 28.2407 -31.5337 -16.1443
lowerback 15.7603 -2.34944 2.31658
upperback 0.913733 -2.15635 8.29527
thorax -7.64669 -1.03318 8.20904
lowerneck -17.9588 0.927509 -9.53647
upperneck 19.1431 1.5153 10.5718
head 8.75823 1.14242 5.42683
rclavicle -8.94034e-014 2.6985e-014
rhumerus -27.8622 -1.88134 -66.3884
rradius 62.705
rwrist -6.93596
rhand -15.151 21.379
rfingers 7.12502
rthumb 11.0191 -8.31183
lclavicle -8.94034e-014 2.6985e-014
lhumerus -7.6114 29.7561 50.4172
lradius 24.6306
lwrist -15.8429
lhand -5.77286 26.4315
lfingers 7.12502
lthumb 20.0507 55.417
rfemur -43.8646 -0.0319748 30.0926
rtibia 70.5419
rfoot -34.7596 -10.2728
rtoes -13.5282
lfemur -31.9484 9.37923 -17.8086
ltibia 91.1031
lfoot 5.72589 -2.73331
ltoes 14.9306
80
root 6.08254 15.745 -21.6956 28.4413 -31.5543 -16.8353
lowerback 15.5921 -1.94995 2.76797
upperback 1.10288 -1.57804 8.27057
thorax -7.42999 -0.774835 7.76687
lowerneck -17.9776 0.349635 -9.96383
upperneck 18.9289 0.731203 11.1059
head 8.77416 0.802744 5.59232
rclavicle -1.44367e-014 5.06404e-014
rhumerus -26.8427 -2.1527 -66.3385
rradius 64.2992
rwrist -6.63023
rhand -14.6645 21.2309
rfingers 7.12502
rthumb 11.4883 -8.43432
lclavicle -1.44367e-014 5.06404e-014
lhumerus -7.36647 30.4201 48.7099
lradius 24.155
lwrist -17.0722
lhand -5.20393 26.1142
lfingers 7.12502
lthumb 20.5975 55.0414
rfemur -41.7261 0.0860583 30.1735
rtibia 69.2457
rfoot -34.9777 -10.2757
rtoes -14.637
lfemur -35.1083 11.1319 -16.8699
ltibia 93.7301
lfoot 3.81685 -3.58762
ltoes 14.2991
